KRSPY-parametric-NarrowBlackMaxGrade.ufo
<glyph name="comma" format="2">
  <advance width="335.44044044044045"/>
  <unicode hex="002C"/>
  <outline>
    <contour>
      <point x="151.37937937937937" y="-180.63663663663664" type="line"/>
      <point x="298.27627627627623" y="0.0" type="line"/>
      <point x="298.27627627627623" y="273.7797797797798" type="line"/>
      <point x="-152.64064064064064" y="273.7797797797798" type="line"/>
      <point x="-211.39939939939939" y="211.50550550550554" type="line"/>
      <point x="-211.39939939939939" y="0.0" type="line"/>
      <point x="76.51851851851852" y="0.0" type="line"/>
      <point x="76.51851851851852" y="-180.63663663663664" type="line"/>
    </contour>
  </outline>
</glyph>
<glyph name="period" format="2">
  <advance width="489.87687687687685"/>
  <unicode hex="002E"/>
  <outline>
    <contour>
      <point x="392.77877877877876" y="0.0" type="line" identifier="1m237t4hyw"/>
      <point x="452.7127127127127" y="74.23423423423424" type="line" identifier="v7N4yg5XNk"/>
      <point x="452.7127127127127" y="251.09709709709713" type="line"/>
      <point x="154.0940940940941" y="251.09709709709713" type="line" identifier="zfocDyDTCM"/>
      <point x="94.16016016016016" y="176.86286286286287" type="line"/>
      <point x="94.16016016016016" y="0.0" type="line" identifier="S4rO5KuHiL"/>
    </contour>
  </outline>
</glyph>
<glyph name="zero" format="2">
  <advance width="1273.5695695695695"/>
  <unicode hex="0030"/>
  <outline>
    <contour>
      <point x="73.05805805805805" y="0.0" type="line" identifier="4KX3b3mGg4"/>
      <point x="1200.5115115115113" y="0.0" type="line" identifier="V2j8wYP0nr"/>
      <point x="1200.5115115115113" y="1600.0" type="line" identifier="NaxGoenf3y"/>
      <point x="73.05805805805805" y="1600.0" type="line" identifier="rx6fJSLiri"/>
    </contour>
    <contour>
      <point x="582.7337337337337" y="286.5645645645646" type="line"/>
      <point x="582.7337337337337" y="1313.4354354354355" type="line"/>
      <point x="690.8358358358358" y="1313.4354354354355" type="line"/>
      <point x="690.8358358358358" y="286.5645645645646" type="line"/>
    </contour>
  </outline>
</glyph>
<glyph name="one" format="2">
  <advance width="778.6126126126126"/>
  <unicode hex="0031"/>
  <outline>
    <contour>
      <point x="48.24424424424424" y="0.0" type="line"/>
      <point x="733.9559559559559" y="0.0" type="line" identifier="CURJAw79Zl"/>
      <point x="733.9559559559559" y="286.5645645645646" type="line" identifier="0DUCJo8xIi"/>
      <point x="645.9379379379379" y="286.5645645645646" type="line" identifier="5nmxQXofSG"/>
      <point x="645.9379379379379" y="1600.0" type="line" identifier="4rjIeWbSbx"/>
      <point x="44.65665665665665" y="1600.0" type="line"/>
      <point x="44.65665665665665" y="1313.4354354354355" type="line"/>
      <point x="136.26226226226225" y="1313.4354354354355" type="line"/>
      <point x="136.26226226226225" y="286.5645645645646" type="line"/>
      <point x="48.24424424424424" y="286.5645645645646" type="line"/>
    </contour>
  </outline>
</glyph>
<glyph name="two" format="2">
  <advance width="1254.2192192192192"/>
  <unicode hex="0032"/>
  <outline>
    <contour>
      <point x="64.88288288288288" y="0.0" type="line"/>
      <point x="1189.7487487487488" y="0.0" type="line" identifier="pzdvPTirLJ"/>
      <point x="1189.7487487487488" y="425.10310310310314" type="line" identifier="91SxUS0iwG"/>
      <point x="680.073073073073" y="425.10310310310314" type="line" identifier="fP7EN0pUcl"/>
      <point x="680.073073073073" y="286.5645645645646" type="line" identifier="eb458Bdvng"/>
      <point x="574.5585585585585" y="286.5645645645646" type="line"/>
      <point x="574.5585585585585" y="411.3993993993994" type="line" identifier="9fjc25rkUx"/>
      <point x="1184.5425425425424" y="1078.804804804805" type="line" identifier="yyb1NCCI5w"/>
      <point x="1184.5425425425424" y="1600.0" type="line" identifier="5FogYRSgkk"/>
      <point x="68.47047047047047" y="1600.0" type="line" identifier="svlFvrau4c"/>
      <point x="68.47047047047047" y="1129.8698698698697" type="line" identifier="LQ9fBsTy9K"/>
      <point x="578.1461461461461" y="1129.8698698698697" type="line" identifier="jS6EyIAKtm"/>
      <point x="578.1461461461461" y="1313.4354354354355" type="line"/>
      <point x="674.8668668668669" y="1313.4354354354355" type="line" identifier="N6CMAjhNlU"/>
      <point x="674.8668668668669" y="1079.804804804805" type="line" identifier="yK1d5IcluK"/>
      <point x="64.88288288288288" y="413.3993993993994" type="line" identifier="teVKnpBcVb"/>
    </contour>
  </outline>
</glyph>
<glyph name="three" format="2">
  <advance width="1189"/>
  <unicode hex="0033"/>
  <outline>
    <contour>
      <point x="28" y="0" type="line" identifier="O9abUc1nmN"/>
      <point x="1152" y="0" type="line" identifier="kMJYMTfXCq"/>
      <point x="1152" y="873" type="line" identifier="su2XmdS8e8"/>
      <point x="1046" y="873" type="line" identifier="JQaOzDQqlF"/>
      <point x="1046" y="876" type="line"/>
      <point x="1113" y="947" type="line" identifier="S91TzLL02W"/>
      <point x="1113" y="1600" type="line" identifier="xg8x2Ki40p"/>
      <point x="30" y="1600" type="line" identifier="pE1XSRiy68"/>
      <point x="30" y="1140" type="line" identifier="5lNstGRcSF"/>
      <point x="540" y="1140" type="line" identifier="AcE5xKDZfE"/>
      <point x="540" y="1307" type="line" identifier="7ogBYufWpl"/>
      <point x="604" y="1307" type="line" identifier="RHLvSX2Jv6"/>
      <point x="604" y="947" type="line" identifier="YUjTrmoWd9"/>
      <point x="541" y="877" type="line"/>
      <point x="541" y="873" type="line" identifier="iic1IBkDqp"/>
      <point x="99" y="873" type="line" identifier="lRLJEhXMlO"/>
      <point x="99" y="698" type="line" identifier="8aKgEELrVU"/>
      <point x="642" y="698" type="line" identifier="Dm8zjmbhNr"/>
      <point x="642" y="287" type="line" identifier="xv9CFHiFgB"/>
      <point x="537" y="287" type="line" identifier="YajKQV3MHP"/>
      <point x="537" y="405" type="line" identifier="36SchVkwze"/>
      <point x="28" y="405" type="line" identifier="tVui9PiOjA"/>
    </contour>
  </outline>
</glyph>
<glyph name="four" format="2">
  <advance width="1245"/>
  <unicode hex="0034"/>
  <outline>
    <contour>
      <point x="625" y="0" type="line"/>
      <point x="1135" y="0" type="line"/>
      <point x="1135" y="651" type="line"/>
      <point x="1217" y="651" type="line"/>
      <point x="1217" y="938" type="line"/>
      <point x="1135" y="938" type="line"/>
      <point x="1135" y="1600" type="line"/>
      <point x="625" y="1600" type="line"/>
      <point x="625" y="938" type="line"/>
      <point x="537" y="938" type="line"/>
      <point x="537" y="994" type="line"/>
      <point x="616" y="1680" type="line"/>
      <point x="118" y="1680" type="line"/>
      <point x="28" y="993" type="line"/>
      <point x="28" y="651" type="line"/>
      <point x="625" y="651" type="line"/>
    </contour>
  </outline>
</glyph>
<glyph name="five" format="2">
  <advance width="1266.3943943943943"/>
  <unicode hex="0035"/>
  <outline>
    <contour>
      <point x="75.43943943943944" y="0.0" type="line" identifier="09VlJ0BjUX"/>
      <point x="1192.3363363363362" y="0.0" type="line" identifier="EagWihqFM8"/>
      <point x="1192.3363363363362" y="906.5705705705707" type="line" identifier="KfNuQA7eZe"/>
      <point x="583.7337337337337" y="949.1291291291292" type="line" identifier="At364YZFEy"/>
      <point x="583.7337337337337" y="1313.4354354354355" type="line" identifier="BcuLfvaQKC"/>
      <point x="1192.3363363363362" y="1313.4354354354355" type="line" identifier="3ZUkG35meB"/>
      <point x="1192.3363363363362" y="1600.0" type="line" identifier="SaF9ojRFrW"/>
      <point x="74.05805805805805" y="1600.0" type="line" identifier="F4sQEYelA8"/>
      <point x="74.05805805805805" y="712.021021021021" type="line" identifier="3sQ8t8BZ6b"/>
      <point x="682.6606606606606" y="668.8748748748749" type="line" identifier="yiV6OCBLHg"/>
      <point x="682.6606606606606" y="286.5645645645646" type="line" identifier="9kdl9SYsn8"/>
      <point x="585.1151151151151" y="286.5645645645646" type="line" identifier="yZDWuX8LLe"/>
      <point x="585.1151151151151" y="434.7717717717718" type="line" identifier="jYb9001DTm"/>
      <point x="75.43943943943944" y="434.7717717717718" type="line" identifier="ho4DrS0rdW"/>
    </contour>
  </outline>
</glyph>
<glyph name="six" format="2">
  <advance width="1257.8068068068067"/>
  <unicode hex="0036"/>
  <outline>
    <contour>
      <point x="65.26426426426427" y="0.0" type="line" identifier="uiw6aBUf4P"/>
      <point x="1190.3363363363362" y="0.0" type="line" identifier="jtYkxiUX6G"/>
      <point x="1190.3363363363362" y="881.4204204204204" type="line" identifier="2G5L37c87I"/>
      <point x="574.9399399399399" y="881.4204204204204" type="line"/>
      <point x="574.9399399399399" y="1191.5525525525525" type="line"/>
      <point x="598.6696696696696" y="1313.4354354354355" type="line"/>
      <point x="680.073073073073" y="1313.4354354354355" type="line"/>
      <point x="680.073073073073" y="1137.2972972972973" type="line"/>
      <point x="1189.13013013013" y="1137.2972972972973" type="line" identifier="Wuidbv6mUe"/>
      <point x="1189.13013013013" y="1600.0" type="line" identifier="oGvEEuxnYv"/>
      <point x="108.75875875875876" y="1600.0" type="line" identifier="xR3pEHbMJx"/>
      <point x="65.26426426426427" y="1192.5525525525525" type="line" identifier="KnMArb0tv8"/>
    </contour>
    <contour>
      <point x="680.6606606606606" y="644.3453453453453" type="line"/>
      <point x="680.6606606606606" y="286.5645645645646" type="line"/>
      <point x="574.9399399399399" y="286.5645645645646" type="line"/>
      <point x="574.9399399399399" y="644.3453453453453" type="line"/>
    </contour>
  </outline>
</glyph>
<glyph name="seven" format="2">
  <advance width="1258.8068068068067"/>
  <unicode hex="0037"/>
  <outline>
    <contour>
      <point x="500.3073073073073" y="0.0" type="line"/>
      <point x="1009.9829829829829" y="0.0" type="line" identifier="PiPrv7Kcoy"/>
      <point x="1188.7487487487488" y="1150.7797797797798" type="line" identifier="PkvwNC9Tx1"/>
      <point x="1188.7487487487488" y="1600.0" type="line" identifier="tgqM27bPOm"/>
      <point x="64.88288288288288" y="1600.0" type="line" identifier="36ml4xRICt"/>
      <point x="64.88288288288288" y="1075.4354354354355" type="line" identifier="aaDZsh5Mah"/>
      <point x="574.5585585585585" y="1075.4354354354355" type="line"/>
      <point x="574.5585585585585" y="1313.4354354354355" type="line"/>
      <point x="679.073073073073" y="1313.4354354354355" type="line"/>
      <point x="679.073073073073" y="1268.3483483483483" type="line"/>
    </contour>
  </outline>
</glyph>
<glyph name="nine" format="2">
  <advance width="1257.8068068068067"/>
  <unicode hex="0039"/>
  <outline>
    <contour>
      <point x="1191.3363363363362" y="1600.0" type="line" identifier="uiw6aBUf4P"/>
      <point x="66.26426426426427" y="1600.0" type="line" identifier="jtYkxiUX6G"/>
      <point x="66.26426426426427" y="706.2072072072071" type="line" identifier="2G5L37c87I"/>
      <point x="681.6606606606606" y="706.2072072072071" type="line"/>
      <point x="681.6606606606606" y="286.5645645645646" type="line"/>
      <point x="577.1461461461461" y="286.5645645645646" type="line"/>
      <point x="577.1461461461461" y="456.5165165165165" type="line"/>
      <point x="67.47047047047047" y="456.5165165165165" type="line" identifier="Wuidbv6mUe"/>
      <point x="67.47047047047047" y="0.0" type="line" identifier="oGvEEuxnYv"/>
      <point x="1191.3363363363362" y="0.0" type="line" identifier="xR3pEHbMJx"/>
    </contour>
    <contour>
      <point x="575.9399399399399" y="937.0960960960961" type="line"/>
      <point x="575.9399399399399" y="1313.4354354354355" type="line"/>
      <point x="681.6606606606606" y="1313.4354354354355" type="line"/>
      <point x="681.6606606606606" y="937.0960960960961" type="line"/>
    </contour>
  </outline>
</glyph>
<glyph name="A" format="2">
  <advance width="1213.5955955955956"/>
  <unicode hex="0041"/>
  <outline>
    <contour>
      <point x="37.16416416416416" y="0.0" type="line" smooth="yes" identifier="jFq8ta4UUc"/>
      <point x="546.8398398398399" y="0.0" type="line" smooth="yes" identifier="dQz4RxYhG4"/>
      <point x="546.8398398398399" y="557.7387387387387" type="line" smooth="yes" identifier="viYRWe5UN7"/>
      <point x="652.9729729729729" y="557.7387387387387" type="line" smooth="yes" identifier="QVexAlbAcl"/>
      <point x="652.9729729729729" y="0.0" type="line" smooth="yes" identifier="ZgsCdxNJRW"/>
      <point x="1162.6486486486488" y="0.0" type="line" smooth="yes" identifier="kpn4Kw9J0C"/>
      <point x="1162.6486486486488" y="1600.0" type="line" smooth="yes" identifier="OBZ5Ayed7M"/>
      <point x="162.28428428428427" y="1600.0" type="line" smooth="yes" identifier="iDT0uyhKrn"/>
      <point x="37.16416416416416" y="1079.5455455455453" type="line" smooth="yes" identifier="dqVr87m3uJ"/>
    </contour>
    <contour>
      <point x="546.8398398398399" y="844.3033033033033" type="line" smooth="yes" identifier="IIRC9Wy7kQ"/>
      <point x="546.8398398398399" y="1079.5455455455453" type="line" smooth="yes" identifier="VufvPdJ075"/>
      <point x="596.3723723723723" y="1313.4354354354355" type="line" smooth="yes" identifier="FsYtJ2vFnp"/>
      <point x="652.9729729729729" y="1313.4354354354355" type="line" smooth="yes" identifier="tUsW8L7b0y"/>
      <point x="652.9729729729729" y="844.3033033033033" type="line" smooth="yes" identifier="eTe9B4y76W"/>
    </contour>
  </outline>
</glyph>
<glyph name="B" format="2">
  <advance width="1224"/>
  <unicode hex="0042"/>
  <outline>
    <contour>
      <point x="561" y="968" type="line"/>
      <point x="561" y="1313" type="line"/>
      <point x="663" y="1313" type="line"/>
      <point x="663" y="1011" type="line"/>
    </contour>
    <contour>
      <point x="1173" y="939" type="line"/>
      <point x="1173" y="1600" type="line"/>
      <point x="51" y="1600" type="line"/>
      <point x="51" y="0" type="line"/>
      <point x="561" y="0" type="line"/>
      <point x="561" y="645" type="line"/>
    </contour>
    <contour>
      <point x="482" y="301" type="line"/>
      <point x="487" y="0" type="line"/>
      <point x="1173" y="0" type="line"/>
      <point x="1173" y="724" type="line"/>
      <point x="676" y="917" type="line"/>
      <point x="676" y="301" type="line"/>
    </contour>
  </outline>
</glyph>
<glyph name="C" format="2">
  <advance width="1213.3873873873874"/>
  <unicode hex="0043"/>
  <outline>
    <contour>
      <point x="60.99599599599599" y="0.0" type="line" identifier="7lPhzTnk2Z"/>
      <point x="1185.8618618618618" y="0.0" type="line" identifier="qJVLZGnkwh"/>
      <point x="1185.8618618618618" y="484.4874874874875" type="line" identifier="nDnDHzAMXL"/>
      <point x="676.1861861861861" y="484.4874874874875" type="line" identifier="QX1V08aTu0"/>
      <point x="676.1861861861861" y="286.5645645645646" type="line" identifier="Y750RHTvDj"/>
      <point x="570.6716716716716" y="286.5645645645646" type="line" identifier="L2LsGnXiZ2"/>
      <point x="570.6716716716716" y="1063.095095095095" type="line" identifier="sUWsr03vF4"/>
      <point x="618.3483483483483" y="1313.4354354354355" type="line" identifier="dbOUe6OhxL"/>
      <point x="675.1861861861861" y="1313.4354354354355" type="line" identifier="5BjRbcud80"/>
      <point x="675.1861861861861" y="967.049049049049" type="line" identifier="fNVDqwQo2o"/>
      <point x="1184.8618618618618" y="967.049049049049" type="line" identifier="wLqQQx7QVN"/>
      <point x="1184.8618618618618" y="1600.0" type="line" identifier="9eJelv8BOw"/>
      <point x="170.21821821821823" y="1600.0" type="line" identifier="lfZev3ICaC"/>
      <point x="60.99599599599599" y="1092.855855855856" type="line" identifier="V1EWIdPahq"/>
    </contour>
  </outline>
</glyph>
<glyph name="D" format="2">
  <advance width="1237.9949949949948"/>
  <unicode hex="0044"/>
  <outline>
    <contour>
      <point x="71.96496496496496" y="0.0" type="line" identifier="gh4oopoKIn"/>
      <point x="1200.8308308308308" y="0.0" type="line" identifier="wIy2omw5Da"/>
      <point x="1200.8308308308308" y="1115.6486486486485" type="line" identifier="ydeACnPZN4"/>
      <point x="1017.0030030030031" y="1600.0" type="line" identifier="IF8msvcgce"/>
      <point x="71.96496496496496" y="1600.0" type="line" identifier="hTYdJwlqIh"/>
    </contour>
    <contour>
      <point x="581.6406406406406" y="1313.4354354354355" type="line" identifier="YShvMHvurg"/>
      <point x="642.950950950951" y="1313.4354354354355" type="line" identifier="DiLdvAK6bW"/>
      <point x="691.1551551551552" y="1126.4004004004003" type="line" identifier="5OFemp6E2Y"/>
      <point x="691.1551551551552" y="286.5645645645646" type="line" identifier="4w8cXO1HlF"/>
      <point x="581.6406406406406" y="286.5645645645646" type="line" identifier="OGdfzPVlic"/>
    </contour>
  </outline>
</glyph>
<glyph name="E" format="2">
  <advance width="1124.6526526526527"/>
  <unicode hex="0045"/>
  <outline>
    <contour>
      <point x="50.946946946946944" y="0.0" type="line" identifier="fZynkQ4XHB"/>
      <point x="1097.1271271271269" y="0.0" type="line" identifier="FAQNpgUPxV"/>
      <point x="1097.1271271271269" y="430.05405405405406" type="line" identifier="gHI0YjrPxR"/>
      <point x="657.9619619619618" y="430.05405405405406" type="line" identifier="gxCIuXb4el"/>
      <point x="657.9619619619618" y="274.81081081081084" type="line" identifier="5cgTYOhATF"/>
      <point x="560.6226226226225" y="274.81081081081084" type="line" identifier="bWs42DaCgU"/>
      <point x="560.6226226226225" y="669.0900900900901" type="line" identifier="VtD2aADJmn"/>
      <point x="1051.5325325325325" y="669.0900900900901" type="line" identifier="PpbsFdHAnS"/>
      <point x="1051.5325325325325" y="931.5285285285286" type="line" identifier="8WuC5p8Ax5"/>
      <point x="560.6226226226225" y="931.5285285285286" type="line" identifier="m39IWn9ntA"/>
      <point x="560.6226226226225" y="1331.993993993994" type="line" identifier="gQ21I4SHQg"/>
      <point x="656.9619619619618" y="1331.993993993994" type="line" identifier="eqNb2VTwYs"/>
      <point x="656.9619619619618" y="1172.5645645645645" type="line" identifier="mLmcFoJA4m"/>
      <point x="1096.1271271271269" y="1172.5645645645645" type="line" identifier="e79n7CoPy1"/>
      <point x="1096.1271271271269" y="1600.0" type="line" identifier="qYRmo14Il5"/>
      <point x="50.946946946946944" y="1600.0" type="line" identifier="HmJIcnLWfC"/>
    </contour>
  </outline>
</glyph>
<glyph name="F" format="2">
<<<<<<< HEAD
  <advance width="1161"/>
  <unicode hex="0046"/>
  <outline>
    <contour>
      <point x="47" y="0" type="line" identifier="oAgH2tA6DJ"/>
      <point x="556" y="0" type="line" identifier="zCZyMcW5ho"/>
      <point x="556" y="597" type="line" identifier="yHYqkMd7LI"/>
      <point x="1043" y="597" type="line" identifier="NmB7yyQuio"/>
      <point x="1043" y="909" type="line" identifier="wQk2C8zPHh"/>
      <point x="556" y="909" type="line" identifier="4cFHKQfHDt"/>
      <point x="556" y="1288" type="line" identifier="ZvzwyrcwpS"/>
      <point x="628" y="1288" type="line" identifier="4E754ovOIe"/>
      <point x="628" y="1064" type="line" identifier="vZkeT9KrKR"/>
      <point x="1138" y="1064" type="line" identifier="0tk7G4orz6"/>
      <point x="1138" y="1600" type="line" identifier="NUrIjqOB7J"/>
      <point x="47" y="1600" type="line" identifier="TBAYuCfUFX"/>
=======
  <advance width="874"/>
  <unicode hex="0046"/>
  <outline>
    <contour>
      <point x="51" y="0" type="line" identifier="fZynkQ4XHB"/>
      <point x="591" y="0" type="line" identifier="bWs42DaCgU"/>
      <point x="591" y="656" type="line" identifier="VtD2aADJmn"/>
      <point x="849" y="656" type="line" identifier="PpbsFdHAnS"/>
      <point x="849" y="943" type="line" identifier="8WuC5p8Ax5"/>
      <point x="590" y="943" type="line" identifier="m39IWn9ntA"/>
      <point x="590" y="1313" type="line" identifier="gQ21I4SHQg"/>
      <point x="849" y="1313" type="line" identifier="eqNb2VTwYs"/>
      <point x="849" y="1600" type="line" identifier="qYRmo14Il5"/>
      <point x="51" y="1600" type="line" identifier="HmJIcnLWfC"/>
>>>>>>> 1ac05343c8cbbfc832346cb6bbe2d0dac5db8134
    </contour>
  </outline>
</glyph>
<glyph name="G" format="2">
  <advance width="824"/>
  <unicode hex="0047"/>
  <outline>
    <contour>
      <point x="24" y="0" type="line" identifier="7lPhzTnk2Z"/>
      <point x="806" y="0" type="line" identifier="qJVLZGnkwh"/>
      <point x="806" y="902" type="line" identifier="uek1NNj7De"/>
      <point x="404" y="902" type="line" identifier="qcvimxjndX"/>
      <point x="404" y="642" type="line" identifier="EARaY3Su65"/>
      <point x="467" y="642" type="line" identifier="4m6dHLVhZq"/>
      <point x="467" y="259" type="line" identifier="Y750RHTvDj"/>
      <point x="364" y="259" type="line" identifier="L2LsGnXiZ2"/>
      <point x="364" y="1133" type="line" identifier="sUWsr03vF4"/>
      <point x="399" y="1341" type="line" identifier="dbOUe6OhxL"/>
      <point x="464" y="1341" type="line" identifier="5BjRbcud80"/>
      <point x="464" y="1052" type="line" identifier="fNVDqwQo2o"/>
      <point x="803" y="1052" type="line" identifier="wLqQQx7QVN"/>
      <point x="803" y="1600" type="line" identifier="9eJelv8BOw"/>
      <point x="100" y="1600" type="line" identifier="lfZev3ICaC"/>
      <point x="24" y="1141" type="line" identifier="V1EWIdPahq"/>
    </contour>
  </outline>
</glyph>
<glyph name="J" format="2">
<<<<<<< HEAD
  <advance width="1180"/>
  <unicode hex="004A"/>
  <outline>
    <contour>
      <point x="104" y="0" type="line" identifier="jiO9eX9U07"/>
      <point x="1133" y="0" type="line" identifier="wgpFs1yguc"/>
      <point x="1133" y="1600" type="line" identifier="d5Di3vNzni"/>
      <point x="48" y="1600" type="line" identifier="TbrXnCyMEi"/>
      <point x="48" y="1288" type="line" identifier="AdYfGKx8QJ"/>
      <point x="624" y="1288" type="line" identifier="46RrD1WET2"/>
      <point x="624" y="312" type="line" identifier="zFXsE8BUYG"/>
      <point x="579" y="312" type="line" identifier="NQmE31PUns"/>
      <point x="533" y="769" type="line" identifier="qiXxY6YhCq"/>
      <point x="23" y="769" type="line" identifier="7exNZv1XSc"/>
=======
  <advance width="1173"/>
  <unicode hex="004A"/>
  <outline>
    <contour>
      <point x="35" y="0" type="line" identifier="jiO9eX9U07"/>
      <point x="1122" y="0" type="line" identifier="wgpFs1yguc"/>
      <point x="1122" y="1600" type="line" identifier="d5Di3vNzni"/>
      <point x="602" y="1600" type="line" identifier="TbrXnCyMEi"/>
      <point x="602" y="287" type="line" identifier="zFXsE8BUYG"/>
      <point x="495" y="287" type="line" identifier="NQmE31PUns"/>
      <point x="495" y="730" type="line" identifier="qiXxY6YhCq"/>
      <point x="35" y="730" type="line" identifier="7exNZv1XSc"/>
>>>>>>> 1ac05343c8cbbfc832346cb6bbe2d0dac5db8134
    </contour>
  </outline>
</glyph>
<glyph name="L" format="2">
<<<<<<< HEAD
  <advance width="1184"/>
  <unicode hex="004C"/>
  <outline>
    <contour>
      <point x="47" y="0" type="line" identifier="XkJNfQlnnt"/>
      <point x="1160" y="0" type="line" identifier="82EXZEgt46"/>
      <point x="1160" y="694" type="line" identifier="VYRt9kHZtP"/>
      <point x="651" y="694" type="line" identifier="t7Q9RRLHt8"/>
      <point x="651" y="312" type="line" identifier="cqpSxwFiM3"/>
      <point x="556" y="312" type="line" identifier="MbxRZRd8vz"/>
      <point x="556" y="1600" type="line" identifier="lYiaKSKITt"/>
      <point x="47" y="1600" type="line" identifier="XFf4mMUzYo"/>
=======
  <advance width="879"/>
  <unicode hex="004C"/>
  <outline>
    <contour>
      <point x="51" y="0" type="line" identifier="XkJNfQlnnt"/>
      <point x="859" y="0" type="line" identifier="82EXZEgt46"/>
      <point x="859" y="287" type="line" identifier="VYRt9kHZtP"/>
      <point x="591" y="287" type="line" identifier="MbxRZRd8vz"/>
      <point x="591" y="1600" type="line" identifier="lYiaKSKITt"/>
      <point x="51" y="1600" type="line" identifier="XFf4mMUzYo"/>
>>>>>>> 1ac05343c8cbbfc832346cb6bbe2d0dac5db8134
    </contour>
  </outline>
</glyph>
<glyph name="M" format="2">
  <advance width="2007.8538538538537"/>
  <unicode hex="004D"/>
  <outline>
    <contour>
      <point x="649.0550550550549" y="224.34434434434434" type="line" identifier="0Dn4Xpf57M"/>
      <point x="589.3563563563563" y="1313.4354354354355" type="line"/>
      <point x="560.6226226226225" y="1313.4354354354355" type="line"/>
      <point x="560.6226226226225" y="0.0" type="line"/>
      <point x="50.946946946946944" y="0.0" type="line"/>
      <point x="50.946946946946944" y="1600.0" type="line"/>
      <point x="952.051051051051" y="1600.0" type="line"/>
      <point x="995.3593593593594" y="486.16416416416416" type="line"/>
      <point x="1012.4944944944945" y="486.16416416416416" type="line" identifier="9aKZPM0HPh"/>
      <point x="1055.8028028028027" y="1600.0" type="line"/>
      <point x="1956.9069069069067" y="1600.0" type="line"/>
      <point x="1956.9069069069067" y="0.0" type="line"/>
      <point x="1447.231231231231" y="0.0" type="line"/>
      <point x="1447.231231231231" y="1313.4354354354355" type="line"/>
      <point x="1418.4974974974975" y="1313.4354354354355" type="line"/>
      <point x="1358.7987987987988" y="224.34434434434434" type="line" identifier="spdoeeCFft"/>
    </contour>
  </outline>
</glyph>
<glyph name="N" format="2">
  <advance width="1548.8928928928929"/>
  <unicode hex="004E"/>
  <outline>
    <contour>
      <point x="50.946946946946944" y="0.0" type="line" identifier="CkwYPPvJLv"/>
      <point x="560.6226226226225" y="0.0" type="line" identifier="oHTJsN7drZ"/>
      <point x="560.6226226226225" y="1208.2702702702702" type="line" identifier="wfBbYd10Pm"/>
      <point x="507.3583583583584" y="1208.2702702702702" type="line" identifier="MEnBDHq6zU"/>
      <point x="986.5075075075074" y="127.23623623623622" type="line" identifier="3Nbopwznvn"/>
      <point x="986.5075075075074" y="0.0" type="line"/>
      <point x="1497.9459459459458" y="0.0" type="line" identifier="uKfuudIUvA"/>
      <point x="1497.9459459459458" y="1600.0" type="line" identifier="XRdLFXiM4t"/>
      <point x="988.2702702702702" y="1600.0" type="line" identifier="MUSJPjCIXg"/>
      <point x="988.8578578578578" y="679.4134134134134" type="line" identifier="VILP20cFmq"/>
      <point x="1144.012012012012" y="679.4134134134134" type="line" identifier="z5b04GDwRN"/>
      <point x="777.2092092092092" y="1600.5875875875877" type="line" identifier="LL64NQ6WBE"/>
      <point x="50.946946946946944" y="1600.0" type="line" identifier="dzUaaP1sjt"/>
    </contour>
  </outline>
</glyph>
<glyph name="O" format="2">
<<<<<<< HEAD
  <advance width="1193"/>
  <unicode hex="004F"/>
  <outline>
    <contour>
      <point x="1160" y="402" type="line" identifier="ob8US3C311"/>
      <point x="1160" y="1600" type="line" identifier="c9brEFyXXA"/>
      <point x="148" y="1600" type="line" identifier="a4Ql951bxG"/>
      <point x="33" y="1201" type="line" identifier="kbL68Qh2zr"/>
      <point x="33" y="0" type="line" identifier="U6WibAQAUl"/>
      <point x="1046" y="0" type="line" identifier="dfgNHTgBfR"/>
    </contour>
    <contour>
      <point x="651" y="420" type="line" identifier="SnrsQD5TLy"/>
      <point x="616" y="302" type="line" identifier="jjd5iRDXWT"/>
      <point x="543" y="302" type="line" identifier="YbQKHpAtYn"/>
      <point x="543" y="1185" type="line" identifier="vdfGLkskOQ"/>
      <point x="577" y="1305" type="line" identifier="qXlVxK5ShE"/>
      <point x="651" y="1305" type="line" identifier="g70r2r6DwY"/>
=======
  <advance width="1223"/>
  <unicode hex="004F"/>
  <outline>
    <contour>
      <point x="1172" y="452" type="line" identifier="ob8US3C311"/>
      <point x="1172" y="1600" type="line" identifier="c9brEFyXXA"/>
      <point x="149" y="1600" type="line" identifier="a4Ql951bxG"/>
      <point x="44" y="1044" type="line" identifier="kbL68Qh2zr"/>
      <point x="44" y="0" type="line" identifier="U6WibAQAUl"/>
      <point x="1172" y="0" type="line" identifier="dfgNHTgBfR"/>
    </contour>
    <contour>
      <point x="662" y="512" type="line" identifier="SnrsQD5TLy"/>
      <point x="662" y="287" type="line" identifier="jjd5iRDXWT"/>
      <point x="554" y="287" type="line" identifier="YbQKHpAtYn"/>
      <point x="554" y="987" type="line" identifier="vdfGLkskOQ"/>
      <point x="600" y="1313" type="line" identifier="qXlVxK5ShE"/>
      <point x="662" y="1313" type="line" identifier="g70r2r6DwY"/>
>>>>>>> 1ac05343c8cbbfc832346cb6bbe2d0dac5db8134
    </contour>
  </outline>
</glyph>
<glyph name="P" format="2">
  <advance width="1198.7507507507507"/>
  <unicode hex="0050"/>
  <outline>
    <contour>
      <point x="50.946946946946944" y="0.0" type="line" identifier="EG08jqU5fb"/>
      <point x="560.6226226226225" y="0.0" type="line" identifier="osRzIFK2Cu"/>
      <point x="560.6226226226225" y="556.1451451451451" type="line" identifier="hIFVovVRwe"/>
      <point x="1171.2252252252251" y="675.2762762762762" type="line" identifier="Tt6D8zYZmU"/>
      <point x="1171.2252252252251" y="1600.0" type="line" identifier="6xW04auDFu"/>
      <point x="50.946946946946944" y="1600.0" type="line" identifier="eETO5GBD5v"/>
    </contour>
    <contour>
      <point x="560.6226226226225" y="805.5925925925926" type="line" identifier="PIBVN1PGv1"/>
      <point x="560.6226226226225" y="1313.4354354354355" type="line" identifier="IZIZQr2gYJ"/>
      <point x="661.5495495495495" y="1313.4354354354355" type="line" identifier="2c4LCF1E1R"/>
      <point x="661.5495495495495" y="831.2532532532533" type="line" identifier="1WCnzth1GX"/>
    </contour>
  </outline>
</glyph>
<glyph name="Q" format="2">
  <advance width="1207"/>
  <unicode hex="0051"/>
  <outline>
    <contour>
<<<<<<< HEAD
      <point x="1160" y="1600" type="line" identifier="c9brEFyXXA"/>
      <point x="142" y="1600" type="line" identifier="a4Ql951bxG"/>
      <point x="33" y="1148" type="line" identifier="kbL68Qh2zr"/>
      <point x="33" y="0" type="line" identifier="U6WibAQAUl"/>
      <point x="1160" y="0" type="line" identifier="dfgNHTgBfR"/>
    </contour>
    <contour>
      <point x="651" y="312" type="line" identifier="jjd5iRDXWT"/>
      <point x="543" y="312" type="line" identifier="YbQKHpAtYn"/>
      <point x="543" y="1149" type="line" identifier="vdfGLkskOQ"/>
      <point x="575" y="1288" type="line" identifier="qXlVxK5ShE"/>
      <point x="651" y="1288" type="line" identifier="g70r2r6DwY"/>
    </contour>
    <contour>
      <point x="421" y="-210" type="line"/>
      <point x="780" y="-210" type="line"/>
      <point x="780" y="1" type="line"/>
      <point x="421" y="1" type="line"/>
=======
      <point x="1164" y="1600" type="line" identifier="c9brEFyXXA"/>
      <point x="142" y="1600" type="line" identifier="a4Ql951bxG"/>
      <point x="37" y="1044" type="line" identifier="kbL68Qh2zr"/>
      <point x="37" y="0" type="line" identifier="U6WibAQAUl"/>
      <point x="1164" y="0" type="line" identifier="dfgNHTgBfR"/>
    </contour>
    <contour>
      <point x="655" y="287" type="line" identifier="jjd5iRDXWT"/>
      <point x="547" y="287" type="line" identifier="YbQKHpAtYn"/>
      <point x="547" y="987" type="line" identifier="vdfGLkskOQ"/>
      <point x="593" y="1313" type="line" identifier="qXlVxK5ShE"/>
      <point x="655" y="1313" type="line" identifier="g70r2r6DwY"/>
    </contour>
    <contour>
      <point x="345" y="-242" type="line"/>
      <point x="854" y="-242" type="line"/>
      <point x="854" y="1" type="line"/>
      <point x="345" y="1" type="line"/>
>>>>>>> 1ac05343c8cbbfc832346cb6bbe2d0dac5db8134
    </contour>
  </outline>
</glyph>
<glyph name="R" format="2">
  <advance width="1213.9769769769769"/>
  <unicode hex="0052"/>
  <outline>
    <contour>
      <point x="560.6226226226225" y="881.4204204204204" type="line"/>
      <point x="560.6226226226225" y="1313.4354354354355" type="line"/>
      <point x="663.1371371371371" y="1313.4354354354355" type="line"/>
      <point x="663.1371371371371" y="923.8328328328329" type="line"/>
      <point x="627.4364364364363" y="881.4204204204204" type="line"/>
    </contour>
    <contour>
      <point x="1176.8128128128128" y="0.0" type="line"/>
      <point x="1176.8128128128128" y="582.6206206206207" type="line"/>
      <point x="1079.3533533533532" y="737.1381381381382" type="line"/>
      <point x="1079.3533533533532" y="739.1381381381382" type="line"/>
      <point x="1172.8128128128128" y="898.6556556556557" type="line"/>
      <point x="1172.8128128128128" y="1600.0" type="line"/>
      <point x="50.946946946946944" y="1600.0" type="line"/>
      <point x="50.946946946946944" y="0.0" type="line"/>
      <point x="560.6226226226225" y="0.0" type="line"/>
      <point x="560.6226226226225" y="594.8558558558559" type="line"/>
      <point x="627.4364364364363" y="594.8558558558559" type="line"/>
      <point x="667.1371371371371" y="556.8558558558559" type="line"/>
      <point x="667.1371371371371" y="0.0" type="line"/>
    </contour>
  </outline>
</glyph>
<glyph name="S" format="2">
<<<<<<< HEAD
  <advance width="1119"/>
  <unicode hex="0053"/>
  <outline>
    <contour>
      <point x="24" y="0" type="line" identifier="09VlJ0BjUX"/>
      <point x="1096" y="0" type="line" identifier="EagWihqFM8"/>
      <point x="1096" y="946" type="line" identifier="KfNuQA7eZe"/>
      <point x="529" y="946" type="line" identifier="At364YZFEy"/>
      <point x="529" y="1121" type="line"/>
      <point x="564" y="1288" type="line"/>
      <point x="586" y="1288" type="line" identifier="3ZUkG35meB"/>
      <point x="586" y="1092" type="line" identifier="DTOJhFIl15"/>
      <point x="1096" y="1092" type="line" identifier="9KDcrfQ5Ui"/>
      <point x="1096" y="1600" type="line" identifier="SaF9ojRFrW"/>
      <point x="141" y="1600" type="line"/>
      <point x="25" y="1157" type="line"/>
      <point x="25" y="634" type="line" identifier="3sQ8t8BZ6b"/>
      <point x="586" y="634" type="line" identifier="yiV6OCBLHg"/>
      <point x="586" y="312" type="line" identifier="9kdl9SYsn8"/>
      <point x="534" y="312" type="line" identifier="yZDWuX8LLe"/>
      <point x="534" y="505" type="line" identifier="jYb9001DTm"/>
      <point x="24" y="505" type="line" identifier="ho4DrS0rdW"/>
=======
  <advance width="1184"/>
  <unicode hex="0053"/>
  <outline>
    <contour>
      <point x="44" y="0" type="line" identifier="09VlJ0BjUX"/>
      <point x="1133" y="0" type="line"/>
      <point x="1133" y="943" type="line" identifier="KfNuQA7eZe"/>
      <point x="547" y="943" type="line"/>
      <point x="547" y="1087" type="line" identifier="At364YZFEy"/>
      <point x="603" y="1313" type="line"/>
      <point x="662" y="1313" type="line" identifier="3ZUkG35meB"/>
      <point x="662" y="1047" type="line" identifier="DTOJhFIl15"/>
      <point x="1132" y="1047" type="line" identifier="9KDcrfQ5Ui"/>
      <point x="1132" y="1600" type="line" identifier="SaF9ojRFrW"/>
      <point x="162" y="1600" type="line"/>
      <point x="44" y="1144" type="line"/>
      <point x="44" y="656" type="line" identifier="3sQ8t8BZ6b"/>
      <point x="622" y="656" type="line" identifier="yiV6OCBLHg"/>
      <point x="622" y="287" type="line" identifier="9kdl9SYsn8"/>
      <point x="517" y="287" type="line" identifier="yZDWuX8LLe"/>
      <point x="517" y="552" type="line" identifier="jYb9001DTm"/>
      <point x="44" y="552" type="line" identifier="ho4DrS0rdW"/>
>>>>>>> 1ac05343c8cbbfc832346cb6bbe2d0dac5db8134
    </contour>
  </outline>
</glyph>
<glyph name="T" format="2">
<<<<<<< HEAD
  <advance width="1076"/>
  <unicode hex="0054"/>
  <outline>
    <contour>
      <point x="282" y="0" type="line"/>
      <point x="793" y="0" type="line"/>
      <point x="793" y="1288" type="line" identifier="zTICSjBOe7"/>
      <point x="1053" y="1288" type="line"/>
      <point x="1053" y="1600" type="line" identifier="l8jRaw0YkY"/>
      <point x="23" y="1600" type="line" identifier="8oS81nStJX"/>
      <point x="23" y="1288" type="line"/>
      <point x="282" y="1288" type="line" identifier="1xm0mHc9eh"/>
=======
  <advance width="960"/>
  <unicode hex="0054"/>
  <outline>
    <contour>
      <point x="209" y="0" type="line"/>
      <point x="750" y="0" type="line"/>
      <point x="750" y="1313" type="line" identifier="zTICSjBOe7"/>
      <point x="940" y="1313" type="line"/>
      <point x="940" y="1600" type="line" identifier="l8jRaw0YkY"/>
      <point x="20" y="1600" type="line" identifier="8oS81nStJX"/>
      <point x="20" y="1313" type="line"/>
      <point x="209" y="1313" type="line" identifier="1xm0mHc9eh"/>
>>>>>>> 1ac05343c8cbbfc832346cb6bbe2d0dac5db8134
    </contour>
  </outline>
</glyph>
<glyph name="U" format="2">
  <advance width="1212.9769769769769"/>
  <unicode hex="0055"/>
  <outline>
    <contour>
      <point x="652.3543543543543" y="1600.0" type="line" smooth="yes"/>
      <point x="652.3543543543543" y="286.5645645645646" type="line"/>
      <point x="584.3103103103102" y="286.5645645645646" type="line" smooth="yes"/>
      <point x="546.8398398398399" y="488.4824824824825" type="line" smooth="yes"/>
      <point x="546.8398398398399" y="1600.0" type="line"/>
      <point x="37.16416416416416" y="1600.0" type="line" smooth="yes"/>
      <point x="37.16416416416416" y="488.4824824824825" type="line" smooth="yes"/>
      <point x="146.3863863863864" y="0.0" type="line" smooth="yes"/>
      <point x="1162.03003003003" y="0.0" type="line" smooth="yes"/>
      <point x="1162.03003003003" y="1600.0" type="line" smooth="yes"/>
    </contour>
  </outline>
</glyph>
<glyph name="V" format="2">
<<<<<<< HEAD
  <advance width="1204"/>
  <unicode hex="0056"/>
  <outline>
    <component base="U" xScale="-1.0" xOffset="1204"/>
=======
  <advance width="1223"/>
  <unicode hex="0056"/>
  <outline>
    <contour>
      <point x="669" y="1600" type="line"/>
      <point x="669" y="613" type="line"/>
      <point x="613" y="287" type="line"/>
      <point x="561" y="287" type="line"/>
      <point x="561" y="1600" type="line"/>
      <point x="51" y="1600" type="line"/>
      <point x="51" y="0" type="line"/>
      <point x="1064" y="0" type="line"/>
      <point x="1179" y="556" type="line"/>
      <point x="1179" y="1600" type="line"/>
    </contour>
>>>>>>> 1ac05343c8cbbfc832346cb6bbe2d0dac5db8134
  </outline>
</glyph>
<glyph name="W" format="2">
  <advance width="1791.7367367367367"/>
  <unicode hex="0057"/>
  <outline>
    <contour>
      <point x="561.2102102102101" y="1600.0" type="line" smooth="yes" identifier="12Pyby1xY2"/>
      <point x="50.946946946946944" y="1600.0" type="line" smooth="yes" identifier="5LJg4ajoG6"/>
      <point x="50.946946946946944" y="0.0" type="line" smooth="yes" identifier="ZqTZqAY3uY"/>
      <point x="833.3183183183182" y="0.0" type="line" smooth="yes" identifier="rCeQLyjlsN"/>
      <point x="887.07007007007" y="263.07107107107106" type="line"/>
      <point x="899.4094094094094" y="263.07107107107106" type="line"/>
      <point x="899.4094094094094" y="0.0" type="line" smooth="yes" identifier="Pkl7cZ37MU"/>
      <point x="1615.970970970971" y="0.0" type="line" smooth="yes" identifier="R4lklfJsHA"/>
      <point x="1754.5725725725724" y="476.7307307307308" type="line" smooth="yes" identifier="7g7f8Wu7K4"/>
      <point x="1754.5725725725724" y="1600.0" type="line" smooth="yes" identifier="RTOJW56qXy"/>
      <point x="1244.3093093093091" y="1600.0" type="line" identifier="JfSFAkWGZC"/>
      <point x="1244.3093093093091" y="470.03003003003005" type="line" smooth="yes" identifier="WWvGwSpq0g"/>
      <point x="1195.7057057057054" y="286.5645645645646" type="line" smooth="yes" identifier="oee4nqI8Wl"/>
      <point x="1156.4224224224224" y="286.5645645645646" type="line" identifier="Ljn2lpvpG8"/>
      <point x="1138.7947947947948" y="475.996996996997" type="line"/>
      <point x="1139.4134134134135" y="1414.4144144144143" type="line" smooth="yes"/>
      <point x="667.3433433433433" y="1414.4144144144143" type="line"/>
      <point x="666.7247247247246" y="463.13213213213214" type="line"/>
      <point x="666.3123123123122" y="451.38038038038036" type="line"/>
      <point x="629.8728728728729" y="286.5645645645646" type="line" identifier="GlWB6PG54Z"/>
      <point x="561.2102102102101" y="286.5645645645646" type="line" identifier="iqeTRv7HXg"/>
    </contour>
  </outline>
</glyph>
<glyph name="X" format="2">
<<<<<<< HEAD
  <advance width="1205"/>
  <unicode hex="0058"/>
  <outline>
    <contour>
      <point x="606" y="644" type="line"/>
      <point x="662" y="598" type="line"/>
      <point x="662" y="0" type="line"/>
      <point x="1172" y="0" type="line"/>
      <point x="1172" y="636" type="line"/>
      <point x="1058" y="799" type="line"/>
      <point x="1058" y="801" type="line"/>
      <point x="1168" y="961" type="line"/>
      <point x="1168" y="1600" type="line"/>
      <point x="658" y="1600" type="line"/>
      <point x="658" y="999" type="line"/>
      <point x="606" y="956" type="line"/>
      <point x="598" y="956" type="line"/>
      <point x="547" y="999" type="line"/>
      <point x="547" y="1600" type="line"/>
      <point x="37" y="1600" type="line"/>
      <point x="37" y="961" type="line"/>
      <point x="147" y="801" type="line"/>
      <point x="147" y="799" type="line"/>
      <point x="33" y="636" type="line"/>
      <point x="33" y="0" type="line"/>
      <point x="543" y="0" type="line"/>
      <point x="543" y="598" type="line"/>
      <point x="598" y="644" type="line"/>
=======
  <advance width="1231"/>
  <unicode hex="0058"/>
  <outline>
    <contour>
      <point x="670" y="621" type="line"/>
      <point x="670" y="0" type="line"/>
      <point x="1180" y="0" type="line"/>
      <point x="1180" y="666" type="line"/>
      <point x="1067" y="769" type="line"/>
      <point x="1067" y="771" type="line"/>
      <point x="1176" y="921" type="line"/>
      <point x="1176" y="1600" type="line"/>
      <point x="667" y="1600" type="line"/>
      <point x="667" y="996" type="line"/>
      <point x="564" y="966" type="line"/>
      <point x="564" y="1600" type="line"/>
      <point x="55" y="1600" type="line"/>
      <point x="55" y="921" type="line"/>
      <point x="164" y="841" type="line"/>
      <point x="164" y="839" type="line"/>
      <point x="51" y="666" type="line"/>
      <point x="51" y="0" type="line"/>
      <point x="561" y="0" type="line"/>
      <point x="561" y="591" type="line"/>
>>>>>>> 1ac05343c8cbbfc832346cb6bbe2d0dac5db8134
    </contour>
  </outline>
</glyph>
<glyph name="Z" format="2">
  <advance width="1188"/>
  <unicode hex="005A"/>
  <outline>
    <contour>
      <point x="28" y="0" type="line"/>
      <point x="1152" y="0" type="line" identifier="pzdvPTirLJ"/>
      <point x="1152" y="472" type="line" identifier="91SxUS0iwG"/>
      <point x="643" y="472" type="line"/>
      <point x="643" y="287" type="line"/>
      <point x="537" y="287" type="line"/>
      <point x="537" y="454" type="line"/>
      <point x="1158" y="1307" type="line" identifier="yyb1NCCI5w"/>
      <point x="1158" y="1600" type="line" identifier="5FogYRSgkk"/>
      <point x="31" y="1600" type="line" identifier="svlFvrau4c"/>
      <point x="31" y="1174" type="line" identifier="LQ9fBsTy9K"/>
      <point x="488" y="1174" type="line"/>
      <point x="488" y="1313" type="line"/>
      <point x="646" y="1313" type="line"/>
      <point x="646" y="1295" type="line"/>
      <point x="28" y="457" type="line" identifier="teVKnpBcVb"/>
    </contour>
  </outline>
</glyph>
<glyph name="e" format="2">
  <advance width="1170"/>
  <unicode hex="0065"/>
  <outline>
    <contour>
      <point x="51" y="0" type="line" identifier="fZynkQ4XHB"/>
      <point x="1119" y="0" type="line" identifier="FAQNpgUPxV"/>
      <point x="1119" y="552" type="line" identifier="gHI0YjrPxR"/>
      <point x="670" y="552" type="line" identifier="gxCIuXb4el"/>
      <point x="670" y="287" type="line" identifier="5cgTYOhATF"/>
      <point x="561" y="287" type="line" identifier="bWs42DaCgU"/>
      <point x="561" y="656" type="line" identifier="VtD2aADJmn"/>
      <point x="1118" y="656" type="line" identifier="PpbsFdHAnS"/>
      <point x="1118" y="943" type="line" identifier="8WuC5p8Ax5"/>
      <point x="560" y="943" type="line" identifier="m39IWn9ntA"/>
      <point x="560" y="1313" type="line" identifier="gQ21I4SHQg"/>
      <point x="669" y="1313" type="line" identifier="eqNb2VTwYs"/>
      <point x="669" y="1047" type="line" identifier="mLmcFoJA4m"/>
      <point x="1118" y="1047" type="line" identifier="e79n7CoPy1"/>
      <point x="1118" y="1600" type="line" identifier="qYRmo14Il5"/>
      <point x="51" y="1600" type="line" identifier="HmJIcnLWfC"/>
    </contour>
  </outline>
</glyph>
<glyph name="C.wide" format="2">
  <advance width="1213.3873873873874"/>
  <outline>
    <contour>
      <point x="60.99599599599599" y="0.0" type="line" identifier="7lPhzTnk2Z"/>
      <point x="1185.8618618618618" y="0.0" type="line" identifier="qJVLZGnkwh"/>
      <point x="1185.8618618618618" y="286.5645645645646" type="line" identifier="Y750RHTvDj"/>
      <point x="570.6716716716716" y="286.5645645645646" type="line" identifier="L2LsGnXiZ2"/>
      <point x="570.6716716716716" y="1063.095095095095" type="line" identifier="sUWsr03vF4"/>
      <point x="618.3483483483483" y="1313.4354354354355" type="line" identifier="dbOUe6OhxL"/>
      <point x="1184.8618618618618" y="1313.4354354354355" type="line" identifier="5BjRbcud80"/>
      <point x="1184.8618618618618" y="1600.0" type="line" identifier="9eJelv8BOw"/>
      <point x="170.21821821821823" y="1600.0" type="line" identifier="lfZev3ICaC"/>
      <point x="60.99599599599599" y="1092.855855855856" type="line" identifier="V1EWIdPahq"/>
    </contour>
  </outline>
</glyph>
<glyph name="F.wide" format="2">
  <advance width="1067"/>
  <outline>
    <contour>
      <point x="51" y="0" type="line" identifier="oAgH2tA6DJ"/>
      <point x="561" y="0" type="line" identifier="zCZyMcW5ho"/>
      <point x="561" y="496" type="line" identifier="yHYqkMd7LI"/>
      <point x="968" y="496" type="line" identifier="NmB7yyQuio"/>
      <point x="968" y="782" type="line" identifier="wQk2C8zPHh"/>
      <point x="561" y="782" type="line" identifier="4cFHKQfHDt"/>
      <point x="561" y="1313" type="line" identifier="ZvzwyrcwpS"/>
      <point x="1039" y="1313" type="line" identifier="4E754ovOIe"/>
      <point x="1039" y="1600" type="line" identifier="NUrIjqOB7J"/>
      <point x="51" y="1600" type="line" identifier="TBAYuCfUFX"/>
    </contour>
  </outline>
</glyph>
<glyph name="G.wide" format="2">
  <advance width="1221.4694694694695"/>
  <outline>
    <contour>
      <point x="37.16416416416416" y="0.0" type="line" identifier="7lPhzTnk2Z"/>
      <point x="1160.854854854855" y="0.0" type="line" identifier="qJVLZGnkwh"/>
      <point x="1160.854854854855" y="864.1031031031032" type="line" identifier="uek1NNj7De"/>
      <point x="585.2412412412413" y="864.1031031031032" type="line" identifier="qcvimxjndX"/>
      <point x="585.2412412412413" y="633.2142142142143" type="line" identifier="EARaY3Su65"/>
      <point x="655.8798798798799" y="633.2142142142143" type="line" identifier="4m6dHLVhZq"/>
      <point x="655.8798798798799" y="286.5645645645646" type="line" identifier="Y750RHTvDj"/>
      <point x="546.8398398398399" y="286.5645645645646" type="line" identifier="L2LsGnXiZ2"/>
      <point x="546.8398398398399" y="1106.0900900900901" type="line" identifier="sUWsr03vF4"/>
      <point x="580.2902902902903" y="1313.4354354354355" type="line" identifier="dbOUe6OhxL"/>
      <point x="1161.03003003003" y="1313.4354354354355" type="line" identifier="5BjRbcud80"/>
      <point x="1161.03003003003" y="1600.0" type="line" identifier="9eJelv8BOw"/>
      <point x="111.13113113113113" y="1600.0" type="line" identifier="lfZev3ICaC"/>
      <point x="37.16416416416416" y="1118.8418418418419" type="line" identifier="V1EWIdPahq"/>
    </contour>
  </outline>
</glyph>
<glyph name="I.narrow" format="2">
  <advance width="410"/>
  <outline>
    <contour>
      <point x="375" y="0" type="line" identifier="1m237t4hyw"/>
      <point x="375" y="1600" type="line" identifier="v7N4yg5XNk"/>
      <point x="35" y="1600" type="line" identifier="zfocDyDTCM"/>
      <point x="35" y="0" type="line" identifier="S4rO5KuHiL"/>
    </contour>
  </outline>
</glyph>
<glyph name="K.alt" format="2">
  <advance width="1261"/>
  <outline>
    <contour>
      <point x="576" y="0" type="line" identifier="wmNm7XZsaF"/>
      <point x="576" y="657" type="line" identifier="O22liaP9Qk"/>
      <point x="627" y="657" type="line" identifier="ELFBWIb1vd"/>
      <point x="682" y="607" type="line" identifier="DzXo67YEfw"/>
      <point x="682" y="0" type="line" identifier="aKpYWD78l2"/>
      <point x="1191" y="0" type="line" identifier="ChS7KlqGi6"/>
      <point x="1191" y="632" type="line" identifier="sWLgkU8Vey"/>
      <point x="1078" y="800" type="line" identifier="Of0iQc0wBG"/>
      <point x="1176" y="1600" type="line" identifier="dMJ1ywOKQQ"/>
      <point x="690" y="1600" type="line" identifier="08OWjR2YBJ"/>
      <point x="634" y="943" type="line" identifier="g4YLdZEoM3"/>
      <point x="576" y="943" type="line" identifier="uZuki3Isec"/>
      <point x="576" y="1600" type="line" identifier="nRfcNgqJ4H"/>
      <point x="66" y="1600" type="line" identifier="3XJlWt89ad"/>
      <point x="66" y="0" type="line" identifier="wdbO8kCovY"/>
    </contour>
  </outline>
</glyph>
<glyph name="L.wide" format="2">
  <advance width="1193.194194194194"/>
  <outline>
    <contour>
      <point x="51.565565565565564" y="0.0" type="line" identifier="XkJNfQlnnt"/>
      <point x="1165.2562562562562" y="0.0" type="line" identifier="82EXZEgt46"/>
      <point x="1165.2562562562562" y="286.5645645645646" type="line" identifier="cqpSxwFiM3"/>
      <point x="561.2412412412413" y="286.5645645645646" type="line" identifier="MbxRZRd8vz"/>
      <point x="561.2412412412413" y="1600.0" type="line" identifier="lYiaKSKITt"/>
      <point x="51.565565565565564" y="1600.0" type="line" identifier="XFf4mMUzYo"/>
    </contour>
  </outline>
</glyph>
<glyph name="N.wide" format="2">
  <advance width="1548.8928928928929"/>
  <outline>
    <contour>
      <point x="50.946946946946944" y="0.0" type="line" identifier="CkwYPPvJLv"/>
      <point x="560.6226226226225" y="0.0" type="line" identifier="oHTJsN7drZ"/>
      <point x="560.6226226226225" y="1208.2702702702702" type="line" identifier="wfBbYd10Pm"/>
      <point x="572.5095095095095" y="1208.2702702702702" type="line" identifier="MEnBDHq6zU"/>
      <point x="990.2192192192191" y="0.0" type="line" identifier="3Nbopwznvn"/>
      <point x="1497.9459459459458" y="0.0" type="line" identifier="uKfuudIUvA"/>
      <point x="1497.9459459459458" y="1600.0" type="line" identifier="XRdLFXiM4t"/>
      <point x="988.2702702702702" y="1600.0" type="line" identifier="MUSJPjCIXg"/>
      <point x="988.2702702702702" y="425.22222222222223" type="line" identifier="VILP20cFmq"/>
      <point x="983.1571571571571" y="425.22222222222223" type="line" identifier="z5b04GDwRN"/>
      <point x="585.0240240240239" y="1600.0" type="line" identifier="LL64NQ6WBE"/>
      <point x="50.946946946946944" y="1600.0" type="line" identifier="dzUaaP1sjt"/>
    </contour>
  </outline>
</glyph>
<glyph name="R.alt" format="2">
  <advance width="1292.888888888889"/>
  <outline>
    <contour>
      <point x="596.0840840840841" y="881.4204204204204" type="line"/>
      <point x="596.0840840840841" y="1313.4354354354355" type="line"/>
      <point x="698.5985985985986" y="1313.4354354354355" type="line"/>
      <point x="698.5985985985986" y="881.4204204204204" type="line"/>
    </contour>
    <contour>
      <point x="1216.3983983983983" y="0.0" type="line"/>
      <point x="1110.0720720720722" y="670.2652652652653" type="line"/>
      <point x="1208.2742742742741" y="707.3823823823823" type="line"/>
      <point x="1208.2742742742741" y="1600.0" type="line"/>
      <point x="86.4084084084084" y="1600.0" type="line"/>
      <point x="86.4084084084084" y="0.0" type="line"/>
      <point x="596.0840840840841" y="0.0" type="line"/>
      <point x="596.0840840840841" y="594.8558558558559" type="line"/>
      <point x="675.917917917918" y="593.6806806806808" type="line"/>
      <point x="753.7297297297297" y="0.0" type="line"/>
    </contour>
  </outline>
</glyph>
<glyph name="S.alt" format="2">
  <advance width="1177.4314314314315"/>
  <outline>
    <contour>
      <point x="60.24424424424424" y="0.0" type="line" identifier="09VlJ0BjUX"/>
      <point x="1114.2382382382384" y="0.0" type="line" identifier="EagWihqFM8"/>
      <point x="1114.2382382382384" y="924.7237237237238" type="line" identifier="KfNuQA7eZe"/>
      <point x="505.04804804804803" y="924.7237237237238" type="line" identifier="At364YZFEy"/>
      <point x="505.04804804804803" y="1134.7797797797798" type="line"/>
      <point x="541.6426426426426" y="1313.4354354354355" type="line"/>
      <point x="603.974974974975" y="1313.4354354354355" type="line" identifier="3ZUkG35meB"/>
      <point x="603.974974974975" y="1188.848848848849" type="line" identifier="DTOJhFIl15"/>
      <point x="1114.2382382382384" y="1188.848848848849" type="line" identifier="9KDcrfQ5Ui"/>
      <point x="1114.2382382382384" y="1600.0" type="line" identifier="SaF9ojRFrW"/>
      <point x="174.63063063063063" y="1600.0" type="line"/>
      <point x="58.24424424424424" y="1170.035035035035" type="line"/>
      <point x="58.24424424424424" y="675.2762762762762" type="line" identifier="3sQ8t8BZ6b"/>
      <point x="603.974974974975" y="675.2762762762762" type="line" identifier="yiV6OCBLHg"/>
      <point x="603.974974974975" y="286.5645645645646" type="line" identifier="9kdl9SYsn8"/>
      <point x="554.055055055055" y="286.5645645645646" type="line" identifier="yZDWuX8LLe"/>
      <point x="554.055055055055" y="434.1531531531532" type="line" identifier="jYb9001DTm"/>
      <point x="60.24424424424424" y="434.1531531531532" type="line" identifier="ho4DrS0rdW"/>
    </contour>
  </outline>
</glyph>
<glyph name="S.wide" format="2">
  <advance width="1120.6836836836837"/>
  <outline>
    <contour>
      <point x="39.16416416416416" y="0.0" type="line" identifier="09VlJ0BjUX"/>
      <point x="1093.1581581581581" y="0.0" type="line" identifier="EagWihqFM8"/>
      <point x="1093.1581581581581" y="924.7237237237238" type="line" identifier="KfNuQA7eZe"/>
      <point x="483.9679679679679" y="924.7237237237238" type="line" identifier="At364YZFEy"/>
      <point x="483.9679679679679" y="1134.7797797797798" type="line"/>
      <point x="520.5625625625624" y="1313.4354354354355" type="line"/>
      <point x="1093.1581581581581" y="1313.4354354354355" type="line" identifier="3ZUkG35meB"/>
      <point x="1093.1581581581581" y="1600.0" type="line" identifier="SaF9ojRFrW"/>
      <point x="153.55055055055055" y="1600.0" type="line"/>
      <point x="37.16416416416416" y="1170.035035035035" type="line"/>
      <point x="37.16416416416416" y="675.2762762762762" type="line" identifier="3sQ8t8BZ6b"/>
      <point x="582.8948948948948" y="675.2762762762762" type="line" identifier="yiV6OCBLHg"/>
      <point x="582.8948948948948" y="286.5645645645646" type="line" identifier="9kdl9SYsn8"/>
      <point x="39.16416416416416" y="286.5645645645646" type="line" identifier="yZDWuX8LLe"/>
    </contour>
  </outline>
</glyph>
<glyph name="Z.wide" format="2">
  <advance width="1187.9589589589589"/>
  <outline>
    <contour>
      <point x="27.525525525525524" y="0.0" type="line"/>
      <point x="1152.3913913913914" y="0.0" type="line" identifier="pzdvPTirLJ"/>
      <point x="1152.3913913913914" y="286.5645645645646" type="line"/>
      <point x="537.2012012012012" y="286.5645645645646" type="line"/>
      <point x="537.2012012012012" y="453.7027027027027" type="line"/>
      <point x="1158.3203203203202" y="1327.1911911911914" type="line" identifier="yyb1NCCI5w"/>
      <point x="1158.3203203203202" y="1600.0" type="line" identifier="5FogYRSgkk"/>
      <point x="31.113113113113116" y="1600.0" type="line" identifier="svlFvrau4c"/>
      <point x="31.113113113113116" y="1313.4354354354355" type="line"/>
      <point x="646.1701701701702" y="1313.4354354354355" type="line"/>
      <point x="646.1701701701702" y="1316.0560560560561" type="line"/>
      <point x="27.525525525525524" y="456.7027027027027" type="line" identifier="teVKnpBcVb"/>
    </contour>
  </outline>
</glyph>
<glyph name="five.wide" format="2">
  <advance width="1268.044044044044"/>
  <outline>
    <contour>
      <point x="77.0890890890891" y="0.0" type="line" identifier="09VlJ0BjUX"/>
      <point x="1193.985985985986" y="0.0" type="line" identifier="EagWihqFM8"/>
      <point x="1193.985985985986" y="906.5705705705707" type="line" identifier="KfNuQA7eZe"/>
      <point x="585.3833833833834" y="949.1291291291292" type="line" identifier="At364YZFEy"/>
      <point x="585.3833833833834" y="1313.4354354354355" type="line" identifier="BcuLfvaQKC"/>
      <point x="1193.985985985986" y="1313.4354354354355" type="line" identifier="3ZUkG35meB"/>
      <point x="1193.985985985986" y="1600.0" type="line" identifier="SaF9ojRFrW"/>
      <point x="75.70770770770771" y="1600.0" type="line" identifier="F4sQEYelA8"/>
      <point x="75.70770770770771" y="712.021021021021" type="line" identifier="3sQ8t8BZ6b"/>
      <point x="684.3103103103103" y="668.8748748748749" type="line" identifier="yiV6OCBLHg"/>
      <point x="684.3103103103103" y="286.5645645645646" type="line" identifier="9kdl9SYsn8"/>
      <point x="77.0890890890891" y="286.5645645645646" type="line" identifier="yZDWuX8LLe"/>
    </contour>
  </outline>
</glyph>
<glyph name="three.wide" format="2">
  <advance width="1272.8488488488488"/>
  <outline>
    <contour>
      <point x="132.1161161161161" y="0.0" type="line" identifier="O9abUc1nmN"/>
      <point x="1197.8108108108108" y="0.0" type="line" identifier="kMJYMTfXCq"/>
      <point x="1197.8108108108108" y="873.0990990990991" type="line" identifier="su2XmdS8e8"/>
      <point x="1091.8368368368367" y="873.0990990990991" type="line" identifier="JQaOzDQqlF"/>
      <point x="1091.8368368368367" y="876.006006006006" type="line"/>
      <point x="1159.2562562562562" y="947.2522522522522" type="line" identifier="S91TzLL02W"/>
      <point x="1159.2562562562562" y="1600.0" type="line" identifier="xg8x2Ki40p"/>
      <point x="134.70370370370372" y="1600.0" type="line" identifier="pE1XSRiy68"/>
      <point x="134.70370370370372" y="1307.2492492492493" type="line" identifier="7ogBYufWpl"/>
      <point x="649.5805805805805" y="1307.2492492492493" type="line" identifier="RHLvSX2Jv6"/>
      <point x="649.5805805805805" y="947.2522522522522" type="line" identifier="YUjTrmoWd9"/>
      <point x="586.8618618618618" y="876.5935935935936" type="line"/>
      <point x="586.8618618618618" y="873.0990990990991" type="line" identifier="iic1IBkDqp"/>
      <point x="203.63763763763765" y="873.0990990990991" type="line" identifier="lRLJEhXMlO"/>
      <point x="203.63763763763765" y="697.8858858858858" type="line" identifier="8aKgEELrVU"/>
      <point x="688.1351351351351" y="697.8858858858858" type="line" identifier="Dm8zjmbhNr"/>
      <point x="688.1351351351351" y="286.5645645645646" type="line" identifier="xv9CFHiFgB"/>
      <point x="132.1161161161161" y="286.5645645645646" type="line" identifier="YajKQV3MHP"/>
    </contour>
  </outline>
</glyph>
